<?xml version="1.0" encoding="UTF-8"?>
<svg width="800" height="600" viewBox="0 0 800 600" fill="none" xmlns="http://www.w3.org/2000/svg">
  <g>
    <!-- North America -->
    <circle cx="150" cy="180" r="4" fill="#1E3A8A"/>
    <circle cx="180" cy="200" r="4" fill="#1E3A8A"/>
    <circle cx="210" cy="220" r="4" fill="#1E3A8A"/>
    <circle cx="170" cy="160" r="4" fill="#F59E0B"/>
    <circle cx="190" cy="180" r="4" fill="#1E3A8A"/>
    <circle cx="220" cy="200" r="4" fill="#1E3A8A"/>
    
    <!-- South America -->
    <circle cx="220" cy="350" r="4" fill="#1E3A8A"/>
    <circle cx="240" cy="380" r="4" fill="#1E3A8A"/>
    <circle cx="260" cy="400" r="4" fill="#F59E0B"/>
    <circle cx="230" cy="370" r="4" fill="#1E3A8A"/>
    <circle cx="250" cy="390" r="4" fill="#1E3A8A"/>
    
    <!-- Europe -->
    <circle cx="400" cy="150" r="4" fill="#1E3A8A"/>
    <circle cx="420" cy="160" r="4" fill="#F59E0B"/>
    <circle cx="440" cy="170" r="4" fill="#1E3A8A"/>
    <circle cx="410" cy="140" r="4" fill="#1E3A8A"/>
    <circle cx="430" cy="150" r="4" fill="#1E3A8A"/>
    
    <!-- Africa -->
    <circle cx="400" cy="280" r="4" fill="#1E3A8A"/>
    <circle cx="420" cy="300" r="4" fill="#1E3A8A"/>
    <circle cx="440" cy="320" r="4" fill="#F59E0B"/>
    <circle cx="410" cy="290" r="4" fill="#1E3A8A"/>
    <circle cx="430" cy="310" r="4" fill="#1E3A8A"/>
    
    <!-- Asia -->
    <circle cx="550" cy="200" r="4" fill="#1E3A8A"/>
    <circle cx="580" cy="220" r="4" fill="#F59E0B"/>
    <circle cx="610" cy="240" r="4" fill="#1E3A8A"/>
    <circle cx="560" cy="180" r="4" fill="#1E3A8A"/>
    <circle cx="590" cy="200" r="4" fill="#1E3A8A"/>
    <circle cx="620" cy="220" r="4" fill="#1E3A8A"/>
    
    <!-- Australia -->
    <circle cx="650" cy="400" r="4" fill="#1E3A8A"/>
    <circle cx="670" cy="420" r="4" fill="#F59E0B"/>
    <circle cx="690" cy="440" r="4" fill="#1E3A8A"/>
    <circle cx="660" cy="380" r="4" fill="#1E3A8A"/>
    <circle cx="680" cy="400" r="4" fill="#1E3A8A"/>
  </g>
</svg> 